<svg width="20" height="20" viewBox="0 0 20 20" fill="none" xmlns="http://www.w3.org/2000/svg">
<g clip-path="url(#clip0_103_9021)">
<path d="M19.7613 10.2302C19.7613 9.55044 19.7061 8.86699 19.5886 8.19824H10.1562V12.0491H15.5577C15.3335 13.291 14.6134 14.3897 13.5588 15.0878V17.5864H16.7813C18.6736 15.8448 19.7613 13.2726 19.7613 10.2302Z" fill="#4285F4"/>
<path d="M10.156 20.0008C12.853 20.0008 15.1275 19.1152 16.7847 17.5867L13.5622 15.088C12.6656 15.698 11.5082 16.0434 10.1596 16.0434C7.55079 16.0434 5.33878 14.2833 4.5451 11.917H1.21973V14.4928C2.91732 17.8696 6.37497 20.0008 10.156 20.0008Z" fill="#34A853"/>
<path d="M4.5417 11.917C4.12281 10.675 4.12281 9.3302 4.5417 8.08824V5.51245H1.22C-0.198334 8.3381 -0.198334 11.6671 1.22 14.4928L4.5417 11.917Z" fill="#FBBC04"/>
<path d="M10.156 3.95805C11.5817 3.936 12.9596 4.47247 13.9921 5.45722L16.8471 2.60218C15.0393 0.904587 12.6399 -0.0287217 10.156 0.000673888C6.37497 0.000673888 2.91732 2.13185 1.21973 5.51234L4.54142 8.08813C5.33143 5.71811 7.54712 3.95805 10.156 3.95805Z" fill="#EA4335"/>
</g>
<defs>
<clipPath id="clip0_103_9021">
<rect width="20" height="20" fill="white"/>
</clipPath>
</defs>
</svg>
